<?xml version="1.0" encoding="UTF-8"?>
<svg id="a" data-name="Layer 1" xmlns="http://www.w3.org/2000/svg" width="702px" height="479px" viewBox="0 0 1190.55 841.89">
  <defs>
    <style>
      .b {
        fill: #fff;
      }

      .c {
        fill: #00b7f1;
      }
    </style>
  </defs>
  <path class="b" d="M874.07,339.98c-2.98-7.32-7.41-14.11-13.3-19.93-6.2-6.13-13.99-11.17-23.38-14.59-8.23-3-17.68-4.76-28.35-4.93l-209.77-.06c-1.39,0-2.65,.56-3.56,1.47-.91,.91-1.47,2.17-1.47,3.56h0v164.63h-177.67c-5.11,0-9.24-.61-12.55-1.77-3.2-1.12-5.62-2.76-7.4-4.85-1.82-2.14-3.08-4.86-3.88-8.09-.83-3.32-1.18-7.17-1.18-11.46v-47.83c0-4.29,.35-8.14,1.18-11.46,.81-3.23,2.06-5.95,3.88-8.09,1.78-2.09,4.2-3.73,7.4-4.85,3.31-1.16,7.44-1.77,12.55-1.77h161.14c1.39,0,2.66-.57,3.57-1.48,.91-.91,1.48-2.18,1.48-3.57v-59.41c0-1.39-.57-2.66-1.48-3.57h0c-.91-.91-2.18-1.48-3.57-1.48h-192.89c-9.53,.22-18.56,2.29-26.79,5.8-9.15,3.89-17.34,9.6-24.18,16.63-6.94,7.12-12.5,15.61-16.3,24.94-5.73,12.46-5.73,27.49-5.73,27.49v89.26c0,10.03,1.95,19.75,5.5,28.72,3.66,9.22,9.01,17.64,15.7,24.76,6.61,7.04,14.54,12.82,23.42,16.87,8.48,3.87,17.83,6.23,27.74,6.54,.73,0,214.99,0,214.99,0h72.28c1.38-.01,2.64-.58,3.56-1.49h0c1.54-1.55,1.49-3.56,1.49-3.56v-165.98s11.78-1.27,16.94,1.92c2.61,1.61,4.16,4.84,4.18,10.63,.03,7.26,.02,49.07,.01,91.7h0v.61h0v4.12c0,34.82-.02,44.3-.02,57,0,1.38,.56,2.64,1.48,3.56h0c1.61,1.61,3.56,1.5,3.56,1.5h70.66c1.39,0,2.66-.57,3.57-1.48,.91-.91,1.48-2.18,1.48-3.57v-165.96s11.09-.47,15.09,1.46c3.36,1.62,5.48,5.16,5.57,12.42h0v.02l.46,152.06h0c0,1.38,.56,2.64,1.48,3.56h0c1.49,1.5,3.56,1.5,3.56,1.5h69.18c1.39,0,2.66-.57,3.57-1.48,.91-.91,1.48-2.18,1.48-3.57v-174.06s0-12.13-4.67-22.37Z"/>
  <g>
    <rect class="c" x="529.66" y="380.63" width="49.39" height="78.65"/>
    <path class="c" d="M404.07,399.57v44.4c0,10.42,8.68,15.3,19.28,15.3h31.18v-78.65h-34.82c-10.6,0-15.64,8.52-15.64,18.94Z"/>
    <rect class="c" x="466.98" y="380.63" width="50.24" height="78.65"/>
  </g>
</svg>